<?xml version="1.0" encoding="utf-8"?>
<!-- Generator: Adobe Illustrator 26.3.1, SVG Export Plug-In . SVG Version: 6.00 Build 0)  -->
<svg version="1.1" id="Layer_1" xmlns="http://www.w3.org/2000/svg" xmlns:xlink="http://www.w3.org/1999/xlink" x="0px" y="0px"
	 viewBox="0 0 48.2 51" style="enable-background:new 0 0 48.2 51;" xml:space="preserve">
<style type="text/css">
	.st0{fill:#F4C345;}
	.st1{fill:#FF7E69;}
	.st2{fill:#391145;}
	.st3{fill:#52A8CE;}
</style>
<path class="st0" d="M11.7,0H3.1c-0.8,0-1.5,0.3-2,0.8c-0.5,0.5-0.8,1.3-0.8,2v17.1c0,0.4,0.1,0.7,0.2,1.1c0.1,0.3,0.4,0.7,0.6,0.9
	c0.3,0.3,0.6,0.5,0.9,0.6c0.3,0.1,0.7,0.2,1.1,0.2h8.5c3,0,5.9-1.2,8.1-3.3c2.1-2.1,3.3-5,3.3-8.1l0,0c0-3-1.2-5.9-3.3-8.1
	C17.6,1.2,14.7,0,11.7,0L11.7,0z"/>
<path class="st1" d="M19.3,5.7h-8.5c-0.4,0-0.7,0.1-1.1,0.2C9.3,6.1,9,6.3,8.7,6.5C8.5,6.8,8.2,7.1,8.1,7.5C8,7.8,7.9,8.2,7.9,8.6
	v17.1c0,0.8,0.3,1.5,0.8,2c0.5,0.5,1.3,0.8,2,0.8h8.5c1.5,0,3-0.3,4.4-0.9c1.4-0.6,2.6-1.4,3.7-2.5c1.1-1.1,1.9-2.3,2.5-3.7
	s0.9-2.9,0.9-4.4l0,0c0-3-1.2-5.9-3.3-8.1C25.2,6.9,22.3,5.7,19.3,5.7L19.3,5.7z"/>
<path class="st2" d="M26.9,11.4h-8.5c-0.4,0-0.7,0.1-1.1,0.2c-0.3,0.1-0.7,0.4-0.9,0.6c-0.3,0.3-0.5,0.6-0.6,0.9
	c-0.1,0.3-0.2,0.7-0.2,1.1v17.1c0,0.8,0.3,1.5,0.8,2c0.5,0.5,1.3,0.8,2,0.8h8.5c3,0,5.9-1.2,8.1-3.3c2.1-2.1,3.3-5,3.3-8.1l0,0
	c0-3-1.2-5.9-3.3-8.1C32.8,12.6,29.9,11.4,26.9,11.4L26.9,11.4z"/>
<path class="st3" d="M34.5,17.1H26c-0.8,0-1.5,0.3-2,0.8c-0.5,0.5-0.8,1.3-0.8,2V37c0,0.8,0.3,1.5,0.8,2c0.5,0.5,1.3,0.8,2,0.8h8.5
	c3,0,5.9-1.2,8.1-3.3c2.1-2.1,3.3-5,3.3-8.1l0,0c0-3-1.2-5.9-3.3-8.1C40.4,18.3,37.5,17.1,34.5,17.1L34.5,17.1z"/>
<path class="st2" d="M35.1,50.7l4-3.9c0.3-0.3,0.8-0.6,1.2-0.7c0.5-0.1,0.9-0.2,1.4-0.1l5.4,0.8c0.2,0,0.4,0,0.5-0.1
	c0.2-0.1,0.3-0.2,0.4-0.3c0.1-0.2,0.1-0.3,0.1-0.5c0-0.2-0.1-0.3-0.2-0.5L35.2,28c-0.1-0.2-0.3-0.3-0.4-0.3c-0.2-0.1-0.4-0.1-0.6,0
	c-0.2,0.1-0.3,0.2-0.4,0.3c-0.1,0.2-0.2,0.3-0.2,0.5v21.6c0,0.2,0.1,0.3,0.2,0.5c0.1,0.1,0.2,0.3,0.4,0.3c0.2,0.1,0.3,0.1,0.5,0.1
	C34.8,51,35,50.9,35.1,50.7z"/>
</svg>
