<svg width="262" height="51" viewBox="0 0 262 51" fill="none" xmlns="http://www.w3.org/2000/svg">
<path d="M73.7168 30.8905L74.2444 34.025H79.0547V10.1286H73.4996V18.601C72.5996 16.7699 70.8927 15.6837 68.2858 15.6837C65.5548 15.6837 63.3203 16.9251 62.11 19.532C61.4893 20.8665 61.179 22.4802 61.179 24.5285V25.0561C61.179 31.2629 63.8789 34.3664 68.2548 34.3664C71.0478 34.3664 72.8168 33.0009 73.7168 30.8905ZM70.1168 29.5561C68.1927 29.5561 66.8582 28.2837 66.8582 25.0251V24.6216C66.8582 21.7975 68.0996 20.3389 70.2099 20.3389C72.2582 20.3389 73.5616 21.8906 73.5616 24.6216V25.0251C73.5616 28.0664 72.1961 29.5561 70.1168 29.5561Z" fill="#391145"/>
<path d="M99.5797 28.3147H93.5901C93.1867 29.3388 92.2867 30.0216 90.7039 30.0216C88.5005 30.0216 87.2902 28.9043 87.0109 26.6699H99.7039V24.6526C99.7039 21.363 98.4935 18.5699 95.8246 16.8941C94.4901 16.0562 92.7522 15.6527 90.6419 15.6527C86.8867 15.6527 84.0936 17.1734 82.5419 19.9665C81.7661 21.332 81.3937 22.9768 81.3937 24.932V25.4595C81.3937 31.0457 84.2798 34.4905 90.5488 34.4905C95.8246 34.4905 98.5866 32.1009 99.5797 28.3147ZM90.7039 19.9354C92.8143 19.9354 93.8694 21.0837 94.1177 23.132H87.0109C87.3833 20.9596 88.6246 19.9354 90.7039 19.9354Z" fill="#391145"/>
<path d="M109.804 34.5215C113.559 34.5215 115.979 33.3422 117.221 31.4802C117.81 30.5181 118.121 29.463 118.121 28.2526C118.121 26.1423 117.221 24.9009 115.886 24.1561C114.521 23.4113 112.876 23.1009 111.293 22.8837C108.624 22.5423 107.104 22.3561 107.104 21.2389C107.104 20.3699 107.724 19.7182 109.462 19.7182C111.138 19.7182 112.1 20.3389 112.348 21.6423H117.904C117.376 18.0113 114.986 15.6217 109.524 15.6217C104.404 15.6217 101.673 18.0423 101.673 21.5803C101.673 23.7526 102.542 24.994 103.907 25.7078C105.242 26.4526 106.886 26.7319 108.438 26.9492C109.928 27.1043 111.293 27.2906 112.038 27.694C112.441 27.9112 112.628 28.2216 112.628 28.625C112.628 29.6181 111.883 30.2078 110.083 30.2078C108.221 30.2078 107.135 29.463 106.762 28.0043H100.928C101.517 32.1629 104.404 34.5215 109.804 34.5215Z" fill="#391145"/>
<path d="M123.182 15.001C125.509 15.001 126.564 14.2562 126.564 12.2079C126.564 10.0976 125.416 9.38379 123.182 9.38379C120.885 9.38379 119.799 10.0976 119.799 12.2079C119.799 14.3182 120.699 15.001 123.182 15.001ZM120.234 16.1493V34.025H126.099V16.1182C125.882 16.2424 125.106 16.3975 124.268 16.4286C123.865 16.4596 123.523 16.4906 123.182 16.4906C122.561 16.4906 121.63 16.4286 120.916 16.3355C120.544 16.3044 120.358 16.2424 120.234 16.1493Z" fill="#391145"/>
<path d="M136.622 41.6284H136.87C143.697 41.6284 146.584 39.1456 146.584 35.2043C146.584 31.8216 144.318 29.8043 139.259 29.8043H135.411C133.456 29.8043 132.897 29.5871 132.897 28.9664C132.897 28.5009 133.115 28.2526 134.077 28.0974C134.542 28.0664 135.225 28.0043 136.125 28.0043H137.18C142.58 28.0043 145.653 25.894 145.653 21.8285V21.7044C145.653 18.9734 144.008 17.1424 140.935 16.5217C143.542 16.5217 144.908 16.1803 145.435 15.1562C145.715 14.6286 145.87 13.8838 145.87 12.9217V12.3941H139.787V13.0148C139.787 14.5044 139.632 15.2493 138.887 15.5286C138.515 15.6837 137.925 15.7768 137.087 15.8079L136.622 15.8389C131.935 15.9941 128.894 17.9492 128.894 21.7665V21.7975C128.894 24.3423 130.073 25.925 132.308 26.763C129.825 27.2906 128.428 28.6561 128.428 30.7664C128.428 32.7215 129.701 33.9319 131.997 34.3043C129.328 34.8008 128.118 35.9801 128.118 37.7801C128.118 39.3939 128.956 40.5422 131.408 41.1629C132.649 41.5042 134.387 41.6284 136.622 41.6284ZM137.242 24.2802C135.566 24.2802 134.511 23.5664 134.511 21.9837V21.8596C134.511 20.1527 135.691 19.3768 137.273 19.3768C138.856 19.3768 140.004 19.9975 140.004 21.8285V21.9527C140.004 23.5354 138.949 24.2802 137.242 24.2802ZM137.335 37.656H136.559C134.108 37.656 133.239 36.9422 133.239 36.1043V36.0732C133.239 35.1112 134.356 34.5215 136.218 34.4284H138.98C141.059 34.4284 141.711 34.956 141.711 35.7939C141.711 36.8801 140.501 37.656 137.335 37.656Z" fill="#391145"/>
<path d="M153.705 34.025V24.6216C153.705 22.1389 154.481 20.5251 156.653 20.5251C158.732 20.5251 159.291 21.9527 159.291 24.1871V34.025H165.001V22.5733C165.001 18.1975 162.922 15.6527 158.888 15.6527C156.095 15.6527 154.264 16.9872 153.301 19.0665L152.774 16.0251H147.964V34.025H153.705Z" fill="#391145"/>
<path d="M175.448 34.5215C179.203 34.5215 181.624 33.3422 182.865 31.4802C183.455 30.5181 183.765 29.463 183.765 28.2526C183.765 26.1423 182.865 24.9009 181.531 24.1561C180.166 23.4113 178.521 23.1009 176.938 22.8837C174.269 22.5423 172.748 22.3561 172.748 21.2389C172.748 20.3699 173.369 19.7182 175.107 19.7182C176.783 19.7182 177.745 20.3389 177.993 21.6423H183.548C183.021 18.0113 180.631 15.6217 175.169 15.6217C170.048 15.6217 167.317 18.0423 167.317 21.5803C167.317 23.7526 168.186 24.994 169.552 25.7078C170.886 26.4526 172.531 26.7319 174.083 26.9492C175.572 27.1043 176.938 27.2906 177.683 27.694C178.086 27.9112 178.272 28.2216 178.272 28.625C178.272 29.6181 177.528 30.2078 175.728 30.2078C173.866 30.2078 172.779 29.463 172.407 28.0043H166.572C167.162 32.1629 170.048 34.5215 175.448 34.5215Z" fill="#391145"/>
<path d="M197.235 34.025V28.7802H196.087C194.287 28.7802 193.511 28.594 193.17 27.6319C193.046 27.1354 192.953 26.3595 192.953 25.3354V21.0216H197.235V16.0251H192.953V11.5252H188.297C188.266 12.27 188.204 13.232 188.111 13.9769C187.956 15.5286 187.522 15.9941 186.342 16.1493C185.722 16.2734 185.287 16.3355 184.573 16.3355V21.0216H187.615V26.4526C187.615 30.2078 188.235 32.3181 190.191 33.3112C191.184 33.7767 192.549 34.025 194.38 34.025H197.235Z" fill="#391145"/>
<path d="M199.607 34.025H205.379V26.0492C205.379 23.8768 205.751 22.6664 206.931 22.1389C207.551 21.8596 208.389 21.7044 209.475 21.7044H211.586V15.7768H210.562C207.303 15.7768 205.503 16.8941 204.913 19.7182L204.138 16.0251H199.607V34.025Z" fill="#391145"/>
<path d="M216.891 15.001C219.218 15.001 220.273 14.2562 220.273 12.2079C220.273 10.0976 219.125 9.38379 216.891 9.38379C214.594 9.38379 213.508 10.0976 213.508 12.2079C213.508 14.3182 214.408 15.001 216.891 15.001ZM213.942 16.1493V34.025H219.808V16.1182C219.591 16.2424 218.815 16.3975 217.977 16.4286C217.573 16.4596 217.232 16.4906 216.891 16.4906C216.27 16.4906 215.339 16.4286 214.625 16.3355C214.253 16.3044 214.067 16.2424 213.942 16.1493Z" fill="#391145"/>
<path d="M233.713 34.3664C236.444 34.3664 238.648 33.125 239.858 30.5181C240.479 29.1836 240.789 27.5699 240.789 25.5216V24.994C240.789 18.7872 238.12 15.6527 233.682 15.6527C230.951 15.6527 229.151 17.0182 228.251 19.1285L227.724 16.0251H222.913V40.1698H228.468V31.4181C229.368 33.2802 231.044 34.3664 233.713 34.3664ZM231.789 29.6492C229.741 29.6492 228.406 28.1595 228.406 25.3664V24.963C228.406 21.9216 229.772 20.432 231.82 20.432C233.775 20.432 235.203 21.7975 235.203 24.994V25.4285C235.203 28.2526 233.868 29.6492 231.789 29.6492Z" fill="#391145"/>
<path d="M261.055 28.3147H255.065C254.662 29.3388 253.762 30.0216 252.179 30.0216C249.976 30.0216 248.765 28.9043 248.486 26.6699H261.179V24.6526C261.179 21.363 259.969 18.5699 257.3 16.8941C255.965 16.0562 254.227 15.6527 252.117 15.6527C248.362 15.6527 245.569 17.1734 244.017 19.9665C243.241 21.332 242.869 22.9768 242.869 24.932V25.4595C242.869 31.0457 245.755 34.4905 252.024 34.4905C257.3 34.4905 260.062 32.1009 261.055 28.3147ZM252.179 19.9354C254.289 19.9354 255.345 21.0837 255.593 23.132H248.486C248.858 20.9596 250.1 19.9354 252.179 19.9354Z" fill="#391145"/>
<path d="M11.6816 0H3.14758C2.38699 0 1.65756 0.30211 1.11974 0.839927C0.581927 1.37774 0.279785 2.1071 0.279785 2.86769V19.9357C0.279785 20.3123 0.353959 20.6853 0.498079 21.0332C0.642198 21.3811 0.853438 21.6972 1.11974 21.9635C1.38603 22.2298 1.70218 22.4411 2.05011 22.5852C2.39805 22.7293 2.77096 22.8035 3.14757 22.8035H11.6816C14.7055 22.8035 17.6056 21.6022 19.7438 19.464C21.8821 17.3257 23.0833 14.4257 23.0833 11.4018V11.4018C23.0833 8.37782 21.8821 5.47766 19.7438 3.33942C17.6056 1.20117 14.7055 0 11.6816 0V0Z" fill="#F4C345"/>
<path d="M19.2831 5.70117H10.7491C10.3725 5.70117 9.99962 5.77534 9.65168 5.91946C9.30375 6.06358 8.98761 6.2748 8.72131 6.5411C8.45501 6.8074 8.24377 7.12356 8.09965 7.47149C7.95553 7.81943 7.88135 8.19239 7.88135 8.56899V25.6369C7.88135 26.3974 8.18348 27.1269 8.7213 27.6648C9.25911 28.2026 9.98855 28.5047 10.7491 28.5047H19.2831C20.7804 28.5047 22.2631 28.2098 23.6464 27.6368C25.0297 27.0638 26.2866 26.2239 27.3454 25.1651C28.4041 24.1064 29.244 22.8495 29.817 21.4662C30.39 20.0829 30.6849 18.6002 30.6849 17.1029V17.1029C30.6849 14.079 29.4836 11.179 27.3454 9.04072C25.2071 6.90247 22.3071 5.70117 19.2831 5.70117V5.70117Z" fill="#FF7E69"/>
<path d="M26.8842 11.4019H18.3502C17.9736 11.4019 17.6007 11.476 17.2528 11.6201C16.9048 11.7643 16.5887 11.9755 16.3224 12.2418C16.0561 12.5081 15.8448 12.8242 15.7007 13.1722C15.5566 13.5201 15.4824 13.8929 15.4824 14.2695V31.3375C15.4824 32.0981 15.7846 32.8276 16.3224 33.3654C16.8602 33.9033 17.5896 34.2054 18.3502 34.2054H26.8842C29.9081 34.2054 32.8082 33.0041 34.9465 30.8658C37.0847 28.7276 38.2859 25.8275 38.2859 22.8036V22.8036C38.2859 19.7797 37.0847 16.8795 34.9465 14.7413C32.8082 12.603 29.9081 11.4019 26.8842 11.4019V11.4019Z" fill="#391145"/>
<path d="M34.4853 17.1028H25.9513C25.1907 17.1028 24.4613 17.4049 23.9235 17.9427C23.3856 18.4805 23.0835 19.21 23.0835 19.9706V37.0385C23.0835 37.7991 23.3856 38.5286 23.9234 39.0664C24.4613 39.6042 25.1907 39.9063 25.9513 39.9063H34.4853C37.5092 39.9063 40.4093 38.705 42.5475 36.5667C44.6858 34.4285 45.887 31.5285 45.887 28.5045V28.5045C45.887 25.4806 44.6858 22.5806 42.5475 20.4423C40.4093 18.3041 37.5092 17.1028 34.4853 17.1028V17.1028Z" fill="#52A8CE"/>
<path d="M35.1107 50.7475L39.1036 46.8878C39.4504 46.5529 39.8695 46.3023 40.3286 46.1552C40.7876 46.0081 41.2743 45.9685 41.7511 46.0394L47.1511 46.8403C47.3254 46.8669 47.5038 46.8413 47.6636 46.7667C47.8235 46.692 47.9576 46.5718 48.0492 46.4211C48.1407 46.2703 48.1856 46.0957 48.1781 45.9195C48.1706 45.7433 48.1111 45.5732 48.0071 45.4307L35.2103 27.978C35.0987 27.8257 34.9418 27.7126 34.7622 27.6546C34.5825 27.5967 34.3892 27.5969 34.2097 27.6553C34.0301 27.7136 33.8736 27.827 33.7623 27.9795C33.651 28.132 33.5907 28.3157 33.5898 28.5045V50.1068C33.5906 50.2827 33.6429 50.4545 33.7405 50.6008C33.8381 50.7471 33.9765 50.8614 34.1385 50.9297C34.3006 50.998 34.4791 51.0172 34.652 50.9848C34.8248 50.9524 34.9843 50.8698 35.1107 50.7475Z" fill="#391145"/>
</svg>